<?xml version="1.0" encoding="UTF-8"?>
<svg xmlns="http://www.w3.org/2000/svg" viewBox="0 0 175 163.19">
  <defs>
    <style>
      .cls-1 { fill: #3ca147; }
      .cls-2 { fill: #009345; }
    </style>
  </defs>
  <g>
    <path class="cls-2" d="M53.04,67.22c-2.8.09-5.17.61-6.96,2.13h-.09v-11h-6.6v28.77h6.6v-1.4h.09c1.42,1.09,3.35,1.88,5.97,1.88,2.91,0,5.58-.83,7.32-2.78,1.74-1.96,2.6-3.82,2.6-7.07,0-2.99-1.08-5.68-2.57-7.39-1.5-1.74-3.98-3.22-6.37-3.14ZM53.75,81.09c-.91.91-2,1.36-3.27,1.36s-2.34-.45-3.22-1.36c-.89-.92-1.33-2.01-1.33-3.3s.44-2.39,1.33-3.3c.89-.91,1.96-1.36,3.22-1.36s2.36.45,3.27,1.36c.91.9,1.36,2.01,1.36,3.3s-.45,2.38-1.36,3.3Z"/>
    <path class="cls-2" d="M97.48,70.22c-1.07-1-2.3-1.76-3.69-2.3-1.38-.53-2.85-.8-4.4-.8s-2.96.27-4.32.8c-1.39.53-2.61,1.29-3.7,2.3-1.11,1.06-1.95,2.22-2.52,3.5-.57,1.28-.85,2.63-.85,4.06s.28,2.79.85,4.05c.58,1.28,1.41,2.44,2.52,3.49,1.09,1,2.32,1.77,3.7,2.31,1.37.53,2.81.8,4.32.8s3.02-.27,4.4-.8c1.39-.53,2.62-1.3,3.69-2.31,1.08-1.01,1.9-2.16,2.47-3.45.56-1.29.85-2.66.85-4.1s-.29-2.82-.85-4.1c-.57-1.29-1.39-2.45-2.47-3.46ZM92.65,81.05c-.91.9-1.99,1.36-3.27,1.36s-2.32-.46-3.22-1.36c-.89-.92-1.34-2.01-1.34-3.31s.45-2.39,1.34-3.29c.89-.91,1.97-1.36,3.22-1.36s2.36.44,3.27,1.36c.91.9,1.37,2.01,1.37,3.29s-.46,2.39-1.37,3.31Z"/>
    <path class="cls-2" d="M63.55,57.75v7.13s3.25.54,3.25,4.65v17.81h6.74v-17.59c-.56-11.42-9.99-12-9.99-12Z"/>
    <path class="cls-2" d="M165.06,82.06C160.79,30.41,151.45,0,82.9,0S5.02,30.41.76,82.06c-5.51,66.68,18.73,81.13,82.15,81.13s87.67-14.45,82.16-81.13ZM139.13,100.89c0,6.73-5.51,12.26-12.26,12.26h-34.65s-7.21,18.2-9.64,18.2-9.09-18.2-9.09-18.2h-34.53c-6.74,0-12.25-5.52-12.25-12.26v-49.73c0-6.74,5.51-12.26,12.25-12.26h87.92c6.75,0,12.26,5.52,12.26,12.26v49.73Z"/>
    <path class="cls-2" d="M119.86,68.9h-.08c-1.59-1.44-3.22-2.07-5.8-2.07-2.9,0-5.42.97-7.19,3.02-1.77,2.07-2.66,4.85-2.66,8.37,0,3.13.79,5.63,2.38,7.49,1.59,1.86,3.95,2.87,6.65,2.87,2.92,0,5.12-.76,6.62-2.84h.08v1.35c0,3.48-3.68,5.25-6.37,4.97v5.23c3.21.46,7.04.28,9.71-2.27,2.25-2.14,3.21-5.22,3.21-10.27v-17.42h-6.56v1.58ZM118.6,81.09c-.91.91-1.99,1.36-3.27,1.36s-2.32-.45-3.22-1.36c-.89-.92-1.34-2.01-1.34-3.3s.45-2.39,1.34-3.3c.89-.91,1.96-1.36,3.22-1.36s2.36.45,3.27,1.36c.91.9,1.36,2.01,1.36,3.3s-.45,2.38-1.36,3.3Z"/>
  </g>
</svg>
